<?xml version="1.0" encoding="utf-8"?>
<!-- Generator: Adobe Illustrator 25.3.1, SVG Export Plug-In . SVG Version: 6.00 Build 0)  -->
<svg version="1.1" id="Layer_1" focusable="false" xmlns="http://www.w3.org/2000/svg" xmlns:xlink="http://www.w3.org/1999/xlink"
	 x="0px" y="0px" viewBox="0 0 512 512" style="enable-background:new 0 0 512 512;" xml:space="preserve">
<style type="text/css">
	.st0{fill:#FFFFFF;}
</style>
<path class="st0" d="M503.5,360.3c-1.6-0.8-32.4-16.9-76.8-25.8c64.3-75.1,84-161.7,84.9-165.6c1.2-5.3-0.4-10.9-4.3-14.8
	c-3-3-7.1-4.7-11.3-4.7c-1.1,0-2.3,0.1-3.4,0.4c-3.9,0.9-86.5,19.6-160.6,79.8c0-1.5,0-2.9,0-4.4c0-118.8-60-213.7-62.5-217.7
	c-2.9-4.6-8-7.4-13.5-7.4c-5.4,0-10.5,2.8-13.5,7.4c-2.6,4-62.5,98.9-62.5,217.7c0,1.5,0,2.9,0,4.4c-74-60.2-156.7-78.9-160.6-79.8
	c-1.1-0.3-2.3-0.4-3.4-0.4c-4.2,0-8.3,1.7-11.3,4.7c-3.9,3.9-5.5,9.4-4.3,14.8c0.9,4,20.7,90.5,84.9,165.6
	c-44.4,8.9-75.2,25-76.8,25.8c-7.8,4.1-10.8,13.8-6.7,21.6c1.5,2.8,3.8,5.2,6.7,6.7c2.4,1.3,60.8,31.7,133.5,31.7
	c6.1,0,12-0.1,17.5-0.3c-11.4,22.2-16.5,38.3-16.8,39.2c-1.8,5.7-0.3,11.9,3.9,16.1c4.2,4.2,10.4,5.8,16.1,4
	c1.8-0.6,37.7-12,77.3-39.3v64c0,4.4,3.6,8,8,8h16c4.4,0,8-3.6,8-8v-64c39.6,27.3,75.5,38.7,77.3,39.3c5.7,1.8,11.9,0.2,16.1-4
	c4.2-4.2,5.7-10.4,3.9-16.1c-0.3-0.9-5.5-17-16.8-39.2c5.5,0.2,11.4,0.3,17.5,0.3c72.7,0,131-30.4,133.5-31.7
	c5.2-2.8,8.5-8.2,8.5-14.1C512,368.5,508.7,363,503.5,360.3z"/>
</svg>
